PathFileType	4	(x/y/z)	TRC_MarkerData\Calibration\Standing_Cal_SL_Passive0001.trc
DataRate	CameraRate	NumFrames	NumMarkers	Units	OrigDataRate	OrigDataStartFrame	OrigNumFrames
240	240	4	50	mm	240	425	849
Frame#	Time	R_AC			L_AC			HEAD			STERN			C7			L_IC			R_IC			L_ASIS			R_ASIS			L_GT			R_GT			L_PSIS			R_PSIS			SACRAL			L_LAT_KNEE			L_MED_KNEE			R_LAT_KNEE			R_MED_KNEE			L_LAT_ANK			L_MED_ANK			R_LAT_ANK			R_MED_ANK			L_THIGH_PROX_POST			L_THIGH_PROX_ANT			L_THIGH_DIST_ANT			L_THIGH_DIST_POST			R_THIGH_PROX_POST			R_THIGH_PROX_ANT			R_THIGH_DIST_ANT			R_THIGH_DIST_POST			L_SHANK_PROX_POST			L_SHANK_PROX_ANT			L_SHANK_DIST_ANT			L_SHANK_DIST_POST			R_SHANK_PROX_POST			R_SHANK_PROX_ANT			R_SHANK_DIST_ANT			R_SHANK_DIST_POST			L_HEEL_LAT			L_HEEL_SUP			L_HEEL_MED			R_HEEL_LAT			R_HEEL_SUP			R_HEEL_MED			L_1ST_MET			L_5TH_MET			L_TOE			R_1ST_MET			R_5TH_MET			R_TOE			
		X1	Y1	Z1	X2	Y2	Z2	X3	Y3	Z3	X4	Y4	Z4	X5	Y5	Z5	X6	Y6	Z6	X7	Y7	Z7	X8	Y8	Z8	X9	Y9	Z9	X10	Y10	Z10	X11	Y11	Z11	X12	Y12	Z12	X13	Y13	Z13	X14	Y14	Z14	X15	Y15	Z15	X16	Y16	Z16	X17	Y17	Z17	X18	Y18	Z18	X19	Y19	Z19	X20	Y20	Z20	X21	Y21	Z21	X22	Y22	Z22	X23	Y23	Z23	X24	Y24	Z24	X25	Y25	Z25	X26	Y26	Z26	X27	Y27	Z27	X28	Y28	Z28	X29	Y29	Z29	X30	Y30	Z30	X31	Y31	Z31	X32	Y32	Z32	X33	Y33	Z33	X34	Y34	Z34	X35	Y35	Z35	X36	Y36	Z36	X37	Y37	Z37	X38	Y38	Z38	X39	Y39	Z39	X40	Y40	Z40	X41	Y41	Z41	X42	Y42	Z42	X43	Y43	Z43	X44	Y44	Z44	X45	Y45	Z45	X46	Y46	Z46	X47	Y47	Z47	X48	Y48	Z48	X49	Y49	Z49	X50	Y50	Z50	

425	1.7688	374.19	1562.4	465.29	394.05	1580.6	171.09	424.44	1816.1	325.29	475.69	1501.3	320.46	333.22	1576.5	319.82	459.15	1110.1	153.73	455.87	1121	472.38	517.8	1026.9	177.91	524.79	1029.6	447.5	436.19	939.21	115.84	441.22	953.25	503.88	336.46	1083	263.39	336.35	1089.2	356.4	322.06	1055.6	308.96	406.56	535.67	151.59	378.76	521.64	285.3	398.66	540.38	478.79	379.02	548.64	347.4	382.36	114.47	147.62	386.53	110.11	218.93	374.77	107.89	450.11	383.73	127.7	359.96	411.37	767.3	136.54	472.52	759.64	157.65	468.43	685.8	169.98	405.82	692.35	147.69	378.02	749.1	490.2	445.79	748.5	497.44	438.9	673.88	488.97	371.85	674.57	481.67	390.23	449.93	149.22	434.05	459.38	174.29	423.51	400.93	176.23	366.2	390.5	168	330.46	372.04	484.45	399.31	376.41	484.32	397.83	300.7	472.23	327.27	299.37	469.69	302.41	42.027	155.35	297.71	70.075	189.25	309.78	40.646	222.05	306.88	39.676	420.02	303.85	69.627	387.58	320.11	45.206	354.22	517.59	53.631	220.06	479.21	40.478	117.68	575.51	62.545	184.09	529.5	57.404	371.08	488.45	39.878	475.14	579.77	56.429	422.74
426	1.7729	374.14	1562.5	465.31	394.07	1580.6	171.1	424.33	1816.2	325.31	475.63	1501.3	320.49	333.16	1576.5	319.84	459.06	1110.1	153.76	455.81	1121	472.4	517.72	1026.9	177.95	524.72	1029.7	447.52	436.11	939.22	115.87	441.17	953.26	503.91	336.37	1083.1	263.42	336.26	1089.2	356.42	321.96	1055.6	308.98	406.52	535.67	151.6	378.72	521.64	285.31	398.64	540.37	478.81	379	548.64	347.41	382.35	114.47	147.62	386.52	110.11	218.94	374.77	107.89	450.11	383.73	127.69	359.96	411.31	767.3	136.57	472.46	759.65	157.67	468.38	685.81	170	405.77	692.35	147.71	377.99	749.09	490.21	445.75	748.5	497.45	438.87	673.87	488.99	371.83	674.57	481.69	390.2	449.93	149.23	434.02	459.38	174.3	423.49	400.93	176.24	366.17	390.49	168.01	330.45	372.03	484.46	399.29	376.4	484.33	397.81	300.68	472.23	327.27	299.35	469.69	302.41	42.026	155.35	297.71	70.072	189.25	309.78	40.642	222.05	306.88	39.672	420.02	303.84	69.623	387.58	320.11	45.203	354.22	517.58	53.631	220.06	479.21	40.479	117.68	575.51	62.548	184.09	529.5	57.407	371.08	488.45	39.877	475.14	579.77	56.434	422.74
427	1.7771	374.1	1562.5	465.34	394.09	1580.7	171.11	424.22	1816.2	325.34	475.58	1501.3	320.51	333.1	1576.5	319.86	458.98	1110.2	153.79	455.75	1121	472.42	517.63	1026.9	177.97	524.66	1029.7	447.53	436.03	939.23	115.9	441.12	953.26	503.93	336.29	1083.1	263.45	336.17	1089.2	356.45	321.86	1055.6	309	406.49	535.67	151.61	378.69	521.63	285.32	398.63	540.36	478.82	378.98	548.64	347.43	382.35	114.47	147.62	386.52	110.1	218.94	374.77	107.88	450.12	383.73	127.69	359.96	411.25	767.31	136.58	472.4	759.66	157.69	468.33	685.82	170.01	405.72	692.36	147.73	377.95	749.08	490.23	445.72	748.5	497.47	438.85	673.86	489	371.8	674.57	481.71	390.17	449.93	149.24	433.99	459.38	174.31	423.46	400.93	176.25	366.15	390.49	168.02	330.44	372.02	484.47	399.28	376.39	484.34	397.8	300.67	472.23	327.26	299.33	469.69	302.41	42.024	155.35	297.71	70.069	189.25	309.78	40.639	222.05	306.88	39.667	420.01	303.84	69.62	387.58	320.11	45.201	354.22	517.58	53.631	220.06	479.21	40.479	117.68	575.51	62.551	184.09	529.5	57.409	371.08	488.45	39.877	475.14	579.77	56.439	422.74
428	1.7813	374.06	1562.5	465.36	394.09	1580.7	171.13	424.11	1816.2	325.38	475.52	1501.3	320.54	333.04	1576.5	319.88	458.88	1110.2	153.82	455.7	1121	472.44	517.55	1027	178	524.59	1029.7	447.55	435.94	939.24	115.93	441.06	953.27	503.96	336.21	1083.1	263.48	336.09	1089.2	356.48	321.76	1055.7	309.02	406.46	535.67	151.62	378.66	521.63	285.33	398.61	540.36	478.83	378.96	548.64	347.44	382.34	114.47	147.62	386.51	110.09	218.94	374.77	107.88	450.12	383.73	127.69	359.97	411.19	767.31	136.6	472.34	759.67	157.7	468.28	685.84	170.03	405.66	692.36	147.74	377.92	749.08	490.25	445.69	748.5	497.49	438.83	673.86	489.02	371.77	674.57	481.73	390.15	449.93	149.25	433.97	459.38	174.31	423.44	400.93	176.26	366.13	390.49	168.03	330.43	372.01	484.48	399.26	376.38	484.35	397.79	300.67	472.24	327.25	299.32	469.69	302.41	42.021	155.35	297.7	70.066	189.25	309.78	40.635	222.05	306.88	39.664	420.01	303.84	69.617	387.58	320.11	45.199	354.22	517.58	53.632	220.06	479.21	40.48	117.68	575.51	62.554	184.09	529.5	57.411	371.08	488.45	39.877	475.14	579.76	56.443	422.74
